<?xml version="1.0" encoding="utf-8"?>
<!-- Generator: Adobe Illustrator 19.2.1, SVG Export Plug-In . SVG Version: 6.00 Build 0)  -->
<svg version="1.1" id="layer" xmlns="http://www.w3.org/2000/svg" xmlns:xlink="http://www.w3.org/1999/xlink" x="0px" y="0px"
	 viewBox="0 0 652 652" style="enable-background:new 0 0 652 652;" xml:space="preserve">
<style type="text/css">
	.st0{fill:#CC0000;}
</style>
<g>
	<path class="st0" d="M523.5,342.3h2c2.2,0,2.5,0.5,2.5,4.1v13.3c0,2.5-0.3,3.4-3,3.4h-1.7v2.7h15.2v-2.7h-0.8c-2.8,0-3-0.9-3-3.4
		v-8.9c0-5.1,2.7-7.9,6.7-7.9c2.9,0,4.8,1.7,4.8,5.6v11.3c0,2.5-0.3,3.4-3,3.4h-0.8v2.7h14.9v-2.7h-1.4c-2.8,0-3-0.9-3-3.4v-12.8
		c0-5.9-4.1-8.3-9.5-8.3c-4.4,0-7.5,1.9-9.4,6.3h-0.1v-6c-3.4,0.4-6.8,0.6-10.3,0.6L523.5,342.3L523.5,342.3z M519.2,353.1v-1.3
		c0-9.1-3.6-13.2-12.4-13.2c-9.1,0-13.1,6-13.1,14.1c0,8.1,3.9,14,13.1,14c9.1,0,11.8-4.7,11.9-9.4h-5.6c-0.1,4.1-1.7,6.2-5.7,6.2
		c-6.7,0-6.8-6.8-6.8-10.5L519.2,353.1L519.2,353.1z M500.7,349.9c0-4.6,1.4-8.3,6-8.3s5.8,3.9,5.8,8.3L500.7,349.9L500.7,349.9z
		 M479.9,348.1c0,4.7-1.4,7-4.3,7c-2.9,0-4.7-2.1-4.7-7c0-4.7,1.6-6.5,4.7-6.5C478.2,341.6,479.9,343.1,479.9,348.1 M482.2,370.4
		c0,2.5-1.7,5.1-6.9,5.1c-4.6,0-6.4-2.2-6.4-4.8c0-2.9,1.6-5.3,6.5-5.3C480.3,365.4,482.2,367.6,482.2,370.4 M490.1,339.1l-8.1,0.7
		c-1.5-0.4-4-1.1-6.3-1.1c-7.1,0-11.8,4.1-11.8,9.4c0,4.9,3.1,7.4,7.2,8.7v0.1c-3.8,0.3-5.3,1.7-5.3,3.4c0,1.9,1.2,2.8,4.9,3.5v0.1
		c-3.8,0.4-8.3,2.4-8.3,6.8c0,4.4,3.8,7.9,12.4,7.9c9.1,0,14.2-3,14.2-8.1c0-6.4-5.1-7.2-10.2-7.6c-6-0.4-7-1-7-2.5
		c0-1.8,2.5-2.1,4.2-2.3l1.3-0.2c7.6-1.3,10-5.3,10-9.7c0-2.3-1-4.5-2.4-5.5v-0.1h5.3L490.1,339.1L490.1,339.1z M425.8,342.3h2
		c2.2,0,2.5,0.5,2.5,4.1v13.3c0,2.5-0.3,3.4-3.1,3.4h-1.7v2.7h15.2v-2.7H440c-2.8,0-3-0.9-3-3.4v-8.9c0-5.1,2.7-7.9,6.7-7.9
		c2.9,0,4.8,1.7,4.8,5.6v11.3c0,2.5-0.3,3.4-3,3.4h-0.8v2.7h14.9v-2.7h-1.4c-2.8,0-3-0.9-3-3.4v-12.8c0-5.9-4.1-8.3-9.5-8.3
		c-4.4,0-7.5,1.9-9.4,6.3h-0.1v-6c-2.7,0.3-7.5,0.6-10.3,0.6L425.8,342.3L425.8,342.3z M411,330.2c0,2.3,1.4,4.1,4,4.1
		c2.6,0,4-1.7,4-4.1c0-2.3-1.4-4.1-4-4.1S411,327.8,411,330.2 M407.3,342.3h2c2.2,0,2.5,0.5,2.5,4.1v13.3c0,2.5-0.3,3.4-3.1,3.4H407
		v2.7h15.9v-2.7h-1.4c-2.8,0-3-0.9-3-3.4v-20.9c-3.5,0.3-8.3,0.6-11.1,0.6L407.3,342.3L407.3,342.3z M370.8,342.3h2
		c2.2,0,2.5,0.5,2.5,4.1v13.3c0,2.5-0.3,3.4-3,3.4h-1.7v2.7h15.3v-2.7h-0.8c-2.8,0-3-0.9-3-3.4v-8.9c0-5.1,2.7-7.9,6.7-7.9
		c2.9,0,4.8,1.7,4.8,5.6v11.3c0,2.5-0.3,3.4-3,3.4h-0.8v2.7h14.9v-2.7H403c-2.8,0-3.1-0.9-3.1-3.4v-12.8c0-5.9-4.1-8.3-9.5-8.3
		c-4.4,0-7.5,1.9-9.4,6.3H381v-6c-2.7,0.3-7.5,0.6-10.3,0.6L370.8,342.3L370.8,342.3z M341,352.7c0,8.1,3.9,14,13.1,14
		c9.1,0,13.1-6,13.1-14c0-8.1-3.9-14.1-13.1-14.1C344.9,338.6,341,344.6,341,352.7 M347.9,352.7c0-7.4,1.6-10.9,6.1-10.9
		c4.5,0,6.1,3.5,6.1,10.9s-1.6,10.9-6.1,10.9C349.6,363.6,347.9,360.1,347.9,352.7 M314,342.3h2.3c2.2,0,2.4,0.5,2.4,4.1v13.3
		c0,2.5-0.3,3.4-3,3.4H314v2.7h17.4v-2.7h-2.9c-2.8,0-3-0.9-3-3.4v-8.9c0-4.6,2.5-7.9,5-7.9c2.1,0,2.7,1.5,2.8,4.2h5.2v-7.8
		c-1.4-0.5-2.9-0.7-4.4-0.7c-4.4,0-7.5,1.9-9.4,6.3h-0.1v-6c-2.7,0.3-7.5,0.6-10.6,0.6L314,342.3L314,342.3z M301.3,348.1
		c0,4.7-1.4,7-4.3,7c-2.9,0-4.7-2.1-4.7-7c0-4.7,1.6-6.5,4.7-6.5C299.6,341.6,301.3,343.1,301.3,348.1 M303.6,370.4
		c0,2.5-1.7,5.1-6.9,5.1c-4.6,0-6.4-2.2-6.4-4.8c0-2.9,1.6-5.3,6.5-5.3C301.6,365.4,303.6,367.6,303.6,370.4 M311.5,339.1l-8.1,0.7
		c-1.5-0.4-4-1.1-6.3-1.1c-7.1,0-11.8,4.1-11.8,9.4c0,4.9,3.1,7.4,7.2,8.7v0.1c-3.8,0.3-5.3,1.7-5.3,3.4c0,1.9,1.2,2.8,4.9,3.5v0.1
		c-3.8,0.4-8.3,2.4-8.3,6.8c0,4.4,3.8,7.9,12.4,7.9c9.2,0,14.2-3,14.2-8.1c0-6.4-5.1-7.2-10.2-7.6c-6-0.4-7-1-7-2.5
		c0-1.8,2.5-2.1,4.2-2.3l1.3-0.2c7.6-1.3,10-5.3,10-9.7c0-2.3-1-4.5-2.4-5.5v-0.1h5.3L311.5,339.1L311.5,339.1z M598.7,288.2h4.8
		v17.1c0,2.5-0.3,3.4-3.1,3.4h-1.7v2.7h17.4v-2.7h-2.9c-2.8,0-3.1-0.9-3.1-3.4v-17.1h7.1V285h-7.1v-5.4c0-3.3,1.3-4.8,3.5-4.8
		c2,0,2.7,1.2,2.7,4.8h4.6v-7.2c-2.4-0.5-4.8-0.8-7.2-0.8c-9.9,0-10.2,6-10.2,13.4h-4.8L598.7,288.2L598.7,288.2z M569.2,298.2
		c0,8.1,3.9,14,13.1,14s13.1-6,13.1-14s-3.9-14.1-13.1-14.1S569.2,290.2,569.2,298.2 M576.2,298.2c0-7.4,1.6-10.9,6.1-10.9
		s6.1,3.5,6.1,10.9c0,7.4-1.6,10.9-6.1,10.9C577.8,309.1,576.2,305.6,576.2,298.2 M542.6,310.7l-2.6,6.6c-0.7,1.9-1.4,3.1-3.5,3.1
		H534v2.7h14.6v-2.7h-1.8c-2.1,0-2.7-0.5-2.7-1.6c0-0.9,0.5-2.1,0.9-2.9l10.7-25.5c0.8-1.8,1.2-2.7,2.4-2.7h1.2V285h-11.5v2.7h2.3
		c0.9,0,1.3,0.2,1.3,0.9c0,0.5-0.3,1.1-0.6,1.9l-5,12.7l-4.5-12.1c-0.3-0.9-0.7-1.6-0.7-2.4c0-0.8,0.5-1,1.5-1h2V285h-13.5v2.7h0.8
		c1.3,0,2,0.8,3.1,3.4L542.6,310.7L542.6,310.7z M506.1,288.2h4.8v15.6c0,6.8,3.1,8.6,8.6,8.6c5.3,0,8.3-2.6,8.3-8.4v-1.2h-4.6v2.8
		c0,2.3-0.9,3.4-2.8,3.4c-2,0-2.8-1-2.8-3.4v-17.3h8.7V285h-8.7v-7.7h-4.7c-0.4,5.5-1.6,7.1-6.7,7.7V288.2z M491.6,275.7
		c0,2.3,1.4,4.1,4,4.1c2.6,0,4-1.7,4-4.1c0-2.3-1.4-4.1-4-4.1C493.1,271.6,491.6,273.4,491.6,275.7 M487.9,287.9h2
		c2.2,0,2.5,0.5,2.5,4.1v13.3c0,2.5-0.3,3.4-3,3.4h-1.7v2.7h15.9v-2.7h-1.4c-2.8,0-3-0.9-3-3.4v-20.9c-3.5,0.3-8.3,0.6-11.1,0.6
		L487.9,287.9L487.9,287.9z M461.9,310.5c1.6,0.7,5.6,1.7,10,1.7c5.7,0,11.8-2.5,11.8-8.8c0-4.1-2.1-5.7-6.8-7.2l-4.5-1.5
		c-2.5-0.8-3.9-2.3-3.9-4.4c0-2.2,1.6-3.2,4.1-3.2c3.9,0,5,1.7,5,5.9h4.6v-7.5c-1.6-0.7-5.2-1.5-9.4-1.5c-6.4,0-10.9,3-10.9,8
		c0,4.2,3.1,6.5,9.4,8.4c5,1.5,5.8,2.7,5.8,4.7c0,2.5-2.3,4-5.8,4c-3.8,0-4.8-2.5-4.8-6.4h-4.6L461.9,310.5L461.9,310.5z
		 M433.6,287.9h2.3c2.2,0,2.4,0.5,2.4,4.1v13.3c0,2.5-0.3,3.4-3,3.4h-1.7v2.7H451v-2.7h-2.9c-2.8,0-3-0.9-3-3.4v-8.9
		c0-4.6,2.5-7.9,5-7.9c2.1,0,2.7,1.5,2.8,4.2h5.2v-7.8c-1.4-0.5-2.9-0.7-4.4-0.7c-4.4,0-7.5,1.9-9.4,6.3h-0.1v-6
		c-2.7,0.3-7.5,0.7-10.6,0.7L433.6,287.9L433.6,287.9z M429.6,298.7v-1.3c0-9.1-3.6-13.2-12.4-13.2c-9.2,0-13.1,6-13.1,14.1
		c0,8.1,3.9,14,13.1,14c9.1,0,11.8-4.7,11.9-9.4h-5.5c-0.1,4.1-1.7,6.2-5.7,6.2c-6.7,0-6.8-6.8-6.8-10.5H429.6L429.6,298.7z
		 M411.1,295.5c0-4.6,1.4-8.3,6-8.3s5.8,3.9,5.8,8.3H411.1z M390.9,287.7h2.3c1.2,0,1.6,0.3,1.6,0.7c0,0.4-0.1,1-0.3,1.3l-5.7,16.2
		h-0.1l-5.2-15.4c-0.2-0.5-0.5-1.2-0.5-1.9c0-0.6,0.5-1,2.2-1h1.8V285h-13.6v2.7h0.7c1.2,0,1.5,0.3,2.2,2.1l8.4,21.9h6.4l8.4-22.2
		c0.5-1.4,1-1.9,2.2-1.9h0.7V285h-11.5L390.9,287.7L390.9,287.7z M360.7,275.7c0,2.3,1.4,4.1,4,4.1c2.6,0,4-1.7,4-4.1
		c0-2.3-1.4-4.1-4-4.1S360.7,273.4,360.7,275.7 M357,287.9h2c2.2,0,2.5,0.5,2.5,4.1v13.3c0,2.5-0.3,3.4-3,3.4h-1.7v2.7h15.9v-2.7
		h-1.4c-2.8,0-3.1-0.9-3.1-3.4v-20.9c-3.5,0.3-8.3,0.6-11.1,0.6L357,287.9L357,287.9z M320.4,287.9h2c2.2,0,2.4,0.5,2.4,4.1v13.3
		c0,2.5-0.3,3.4-3,3.4H320v2.7h15.2v-2.7h-0.8c-2.8,0-3-0.9-3-3.4v-8.9c0-5.1,2.7-7.9,6.7-7.9c2.9,0,4.8,1.7,4.8,5.6v11.3
		c0,2.5-0.3,3.4-3,3.4h-0.8v2.7h14.9v-2.7h-1.4c-2.8,0-3-0.9-3-3.4v-12.8c0-5.9-4.1-8.3-9.5-8.3c-4.4,0-7.5,1.9-9.4,6.3h-0.1v-6
		c-2.7,0.3-7.5,0.6-10.3,0.6L320.4,287.9L320.4,287.9z M307.2,311.4h10.3v-2.7h-1.4c-2.8,0-3-0.9-3-3.4v-20.9
		c-3.5,0.3-8.3,0.7-11.1,0.7v2.8h2c2.2,0,2.5,0.5,2.5,4.1v7.5c0,5.6-2,8.6-6.6,8.6c-3.1,0-4.8-1.6-4.8-4.8v-18.8
		c-3.5,0.3-8.3,0.7-11.1,0.7v2.8h2c2.2,0,2.5,0.5,2.5,4.1v12.7c0,5.1,3.3,7.5,8.7,7.5c5.5,0,8.9-2.4,10.2-6h0.1L307.2,311.4
		L307.2,311.4z"/>
</g>
<path class="st0" d="M246.6,284.6L149.9,404l7.7,0l96.7-119.3L246.6,284.6z M67.7,261.4c-0.7,0.1-1.7,0.4-2.3-0.9
	c-0.5-1.1,1.4-3,2.1-3.6c0.8-0.8-0.2-1.6-0.9-0.7c-0.2,0.2-1.7,2.4-2.9,2.4c-1.9,0-1.8-2.2-1.8-2.2s-2.1-1.3-2.1-5.6
	c0-3.8,2.5-5.6,2.5-5.6s0-2.1,1.7-2.1c1.7,0.1,2.8,2.4,2.9,2.5c0.8,1.3,1.9,0.2,1.2-0.7c-1.8-2.1-2.1-3.8-0.2-4.7
	c0.7-1.6,2.8-2.7,5.1-2.9H73l0.1,0c2.3,0.2,4.4,1.3,5.1,2.9c1.9,0.9,1.6,2.6-0.2,4.7c-0.7,0.9,0.3,2,1.2,0.7
	c0.1-0.2,1.2-2.5,2.9-2.5c1.7-0.1,1.7,2.1,1.7,2.1s2.5,1.8,2.5,5.6c0,4.2-2.1,5.6-2.1,5.6s0.1,2.2-1.8,2.2c-1.2,0-2.7-2.2-2.9-2.4
	c-0.6-0.9-1.7-0.1-0.9,0.7c0.7,0.6,2.6,2.4,2.1,3.6c-0.6,1.2-1.6,1-2.3,0.9c0,0-0.6,1.1-1.6,1.1c4.9,3.6,12.5,1.6,13.5-1.1
	c0,0-1.3,0.3-1.3-1.1c0-0.8,0.8-1.3,2-1.4c-0.2-0.6-0.4-1.2-0.3-1.8c0.1-1.9,1.4-3.5,2.9-3.6c1.5-0.1,2.7,1.4,2.5,3.3
	c0,0.9-0.4,1.8-1,2.5c1.1,0.4,1.9,0.9,1.8,1.6c-0.3,1.8-1.9,1.3-1.9,1.3c-0.2,4,5.9,4.8,7.5,3.7c-0.6-2.3,0.3-3,1-3.6
	c0.5-0.4,2-1.4,2.2-1.5c0.5-0.3,0.7-1,0.4-1.2c-0.3-0.2-0.9,0.2-1.2,0.5c-0.4,0.5-1.1,1.6-2.3,1.3c-1.4-0.4-0.8-1.9-1-2.8
	c-1.5-5.3-0.2-9.1,5.1-11.3c0,0,2-2.1,3.9-1.2c1.7,0.9,0.7,3.8,0.7,3.8l0.5,0.2c1.9-3.5,4.8-6.1,8.8-6.2c2.9-0.1,4.2,1.6,4.4,3.9
	c0.2,5.1-5,3.2-4.6,1.3c0,0-1.3,0.1-2,1.2c0-0.3,0-3.4-2.7-1.8c-0.8,0.5-2.2,2.8-2.3,3.1c-0.3,1,0.2,1.2-0.4,2.2
	c-0.4,0.8-1,1-1.2,1.5c-0.3,0.5,0.1,1.6-0.2,2.3c-0.4,0.8-1,0.9-1.4,1.7c-0.3,0.6-4.1,10.3-4.1,10.3s1.5,1,1.2,2.4
	c-0.4,1.9-1.6,1.5-2.3,2.8c-20.7-5.3-42.1-5.4-64.3-0.1c-0.7-1.2-1.8-0.8-2.2-2.7c-0.3-1.4,1.2-2.4,1.2-2.4s-3.8-9.7-4.1-10.3
	c-0.4-0.8-1-0.8-1.4-1.7c-0.3-0.7,0-1.8-0.2-2.3c-0.2-0.5-0.8-0.7-1.2-1.5c-0.5-1,0-1.2-0.4-2.2c-0.1-0.3-1.5-2.6-2.3-3.1
	c-2.7-1.6-2.7,1.4-2.7,1.8c-0.7-1.1-2-1.2-2-1.2c0.4,1.9-4.9,3.8-4.6-1.3c0.1-2.3,1.5-4,4.4-3.9c4,0.1,6.9,2.7,8.8,6.2l0.5-0.3
	c0,0-1.1-2.8,0.7-3.8c1.8-1,3.8,1.2,3.8,1.2c5.3,2.2,6.6,6,5.1,11.3c-0.2,0.8,0.4,2.4-1,2.8c-1.1,0.3-1.8-0.8-2.3-1.3
	c-0.3-0.3-0.9-0.7-1.2-0.5c-0.3,0.2-0.1,0.9,0.4,1.2c0.2,0.1,1.7,1.1,2.2,1.5c0.7,0.6,1.6,1.3,1,3.6c1.6,1,7.7,0.3,7.5-3.7
	c0,0-1.6,0.4-1.9-1.3c-0.1-0.7,0.7-1.2,1.8-1.6c-0.6-0.7-0.9-1.6-1-2.5c-0.1-1.9,1-3.4,2.5-3.3c1.5,0.1,2.8,1.7,2.9,3.6
	c0,0.7-0.1,1.3-0.3,1.8c1.1,0.2,2,0.6,2,1.4c0,1.4-1.3,1.1-1.3,1.1c1,2.7,8.7,4.7,13.5,1.1C68.3,262.5,67.7,261.4,67.7,261.4
	 M89.2,267c1.5,0,4.6,0.6,4.6,0.6s-1.3-1.4-1.9-2.4c0,0-0.7,0.6-1.1,0.9C90.5,266.3,89.2,267,89.2,267 M73,263.8
	c-0.6,0.7-1.8,1.8-3,2.3c0,0,2.1-0.1,3-0.1h0.1c0.9,0,3,0.1,3,0.1C74.8,265.6,73.6,264.5,73,263.8 M56.8,267c0,0-1.3-0.6-1.6-0.9
	c-0.4-0.3-1.1-0.9-1.1-0.9c-0.6,1-1.9,2.4-1.9,2.4S55.3,266.9,56.8,267 M104.2,276.6c1,0.3,2.4,1.2,2,2.7c-0.4,1.4-2.1,1.6-3.1,1.3
	c-1-0.3-2.4-1.2-2-2.7C101.5,276.5,103.2,276.4,104.2,276.6 M91.2,276.2l-3,2.5l-2.5-3l3-2.5L91.2,276.2z M43.2,280.6
	c-1,0.3-2.7,0.1-3.1-1.3c-0.4-1.4,1-2.4,2-2.7c1-0.3,2.7-0.1,3.1,1.3C45.6,279.4,44.2,280.4,43.2,280.6 M70.1,275.3
	c0-1.1,1.4-2.1,3.1-2.1c1.7,0,3.1,0.9,3.1,2.1c0,1.1-1.4,2.1-3.1,2.1C71.5,277.3,70.1,276.4,70.1,275.3 M55.2,276.2l2.5-3l3,2.5
	l-2.5,3L55.2,276.2z M29.4,367.4c0.3-1.4,1.8-1.1,1.8-1.1s-0.4-1.3,0.9-1.8c1.4-0.6,2.1,0.9,2.1,0.9l0.6,4.1l-4.3-0.1
	C30.5,369.3,29,368.9,29.4,367.4 M35.5,360.6c0.3-1.4,1.8-1.1,1.8-1.1s-0.4-1.3,0.9-1.8c1.4-0.6,2.1,0.9,2.1,0.9l0.6,4.1l-4.3-0.1
	C36.6,362.6,35.1,362.1,35.5,360.6 M41.6,353.9c0.3-1.4,1.8-1.1,1.8-1.1s-0.4-1.3,0.9-1.8c1.4-0.6,2.1,0.9,2.1,0.9l0.6,4.1l-4.3-0.1
	C42.8,355.8,41.2,355.4,41.6,353.9 M73.1,291.6c0.3-1.4,1.8-1.1,1.8-1.1s-0.4-1.3,0.9-1.8c1.4-0.6,2.1,0.9,2.1,0.9l0.6,4.1l-4.3-0.1
	C74.2,293.6,72.7,293.1,73.1,291.6 M79.1,314.6c0.3-1.4,1.8-1.1,1.8-1.1s-0.3-1.3,0.9-1.8c1.4-0.6,2.1,0.9,2.1,0.9l0.6,4.1l-4.3-0.1
	C80.2,316.5,78.7,316.1,79.1,314.6 M86.3,306.9c0.3-1.4,1.8-1.1,1.8-1.1s-0.3-1.3,0.9-1.8c1.4-0.6,2.1,0.9,2.1,0.9l0.6,4.1l-4.3-0.1
	C87.4,308.9,85.9,308.5,86.3,306.9 M93.5,299.3c0.3-1.4,1.8-1.1,1.8-1.1s-0.3-1.3,0.9-1.8c1.4-0.6,2.1,0.9,2.1,0.9l0.6,4.1l-4.3-0.1
	C94.6,301.3,93.1,300.8,93.5,299.3 M100.6,291.7c0.4-1.4,1.8-1.1,1.8-1.1s-0.3-1.3,0.9-1.8c1.4-0.6,2.1,0.9,2.1,0.9l0.6,4.1
	l-4.3-0.1C101.8,293.7,100.3,293.2,100.6,291.7 M25.3,343c0.3-1.4,1.8-1.1,1.8-1.1s-0.4-1.3,0.9-1.8c1.4-0.6,2.1,0.9,2.1,0.9
	l0.6,4.1l-4.3-0.1C26.4,344.9,24.9,344.5,25.3,343 M42,383.8c0.3-1.4,1.8-1.1,1.8-1.1s-0.4-1.3,0.9-1.8c1.4-0.6,2.1,0.9,2.1,0.9
	l0.6,4.1l-4.3-0.1C43.2,385.8,41.6,385.3,42,383.8 M49.1,376.1c0.3-1.4,1.8-1.1,1.8-1.1s-0.3-1.3,0.9-1.8c1.4-0.6,2.1,0.9,2.1,0.9
	l0.6,4.1l-4.3-0.1C50.3,378,48.7,377.6,49.1,376.1 M56.2,368.3c0.3-1.4,1.8-1.1,1.8-1.1s-0.3-1.3,0.9-1.8c1.4-0.6,2.1,0.9,2.1,0.9
	l0.6,4.1l-4.3-0.1C57.4,370.3,55.9,369.8,56.2,368.3 M63.4,360.6c0.3-1.4,1.8-1.1,1.8-1.1s-0.3-1.3,0.9-1.8c1.4-0.6,2.1,0.9,2.1,0.9
	l0.6,4.1l-4.3-0.1C64.5,362.5,63,362.1,63.4,360.6 M94.7,327.7c0.3-1.4,1.8-1.1,1.8-1.1s-0.4-1.3,0.9-1.8c1.4-0.6,2.1,0.9,2.1,0.9
	l0.6,4.1l-4.3-0.1C95.9,329.6,94.3,329.2,94.7,327.7 M101.1,320.7c0.3-1.4,1.8-1.1,1.8-1.1s-0.4-1.3,0.9-1.8
	c1.4-0.6,2.1,0.9,2.1,0.9l0.6,4.1l-4.3-0.1C102.3,322.6,100.8,322.2,101.1,320.7 M107.6,313.7c0.3-1.4,1.8-1.1,1.8-1.1
	s-0.4-1.3,0.9-1.8c1.4-0.6,2.1,0.9,2.1,0.9l0.6,4.1l-4.3-0.1C108.7,315.6,107.2,315.2,107.6,313.7 M114,306.7
	c0.3-1.4,1.8-1.1,1.8-1.1s-0.3-1.3,0.9-1.8c1.4-0.6,2.1,0.9,2.1,0.9l0.6,4.1l-4.3-0.1C115.1,308.6,113.6,308.2,114,306.7
	 M64.1,390.7c0.3-1.4,1.8-1.1,1.8-1.1s-0.3-1.3,0.9-1.8c1.4-0.6,2.1,0.9,2.1,0.9l0.6,4.1l-4.3-0.1C65.3,392.6,63.8,392.2,64.1,390.7
	 M114,335.5c0.3-1.4,1.8-1.1,1.8-1.1s-0.3-1.3,0.9-1.8c1.4-0.6,2.1,0.9,2.1,0.9l0.6,4.1l-4.3-0.1C115.2,337.4,113.6,337,114,335.5
	 M65.8,341c0-0.2,0.3-0.2,1-0.3c0.6-0.1,1.2-0.3,1.2-0.1c0,0.3-0.4,0.1-0.4,0.6v5.1c0,0.2,0.3,0.1,0.3,0.3c0,0.2-0.6,0.1-1.1,0.1
	c-0.5,0-1.1,0.1-1.1-0.1c0-0.3,0.4,0,0.4-0.3v-4.8C66.2,341,65.8,341.4,65.8,341 M60.3,343.2c0-0.1,0.2-0.2,0.5-0.3
	c0.3-0.2,0.5-0.3,0.8-0.1c0.3,0.3,1.9,2.1,1.9,2.1v-2.6c0-0.3-0.5,0.1-0.5-0.2c0-0.2,0.2-0.2,0.6-0.4c0.4-0.1,0.9-0.5,0.9-0.3
	c0,0.3-0.4,0.2-0.4,0.6v4.9c0,0.4,0,0.4-0.2,0.4c-0.1,0-2.6-3.1-2.6-3.1v3.3c0,0.3,0.6-0.1,0.6,0.2c0,0.2-0.4,0.3-0.7,0.4
	c-0.4,0.1-0.9,0.4-0.9,0.2c0-0.3,0.4-0.2,0.4-0.5v-4.3C60.7,343.2,60.3,343.5,60.3,343.2 M58.3,346.3c0-2.1-1.3-1.3-1.3-1.3v4.3
	C57,349.3,58.3,349.3,58.3,346.3 M55.2,345.4c0-0.2,0.6-0.4,1.1-0.6c0.8-0.4,3.3-1.6,3.3,1.4c0,2.8-2,3.3-2.6,3.6
	c-0.6,0.3-1.5,0.7-1.6,0.6c-0.1-0.2,0.3-0.3,0.3-0.8v-3.5C55.7,345.3,55.2,345.7,55.2,345.4 M63.9,332.7c0-0.1,0.5-0.2,0.8-0.3
	c0.5-0.1,0.7-0.2,0.9,0c0.2,0.2,1.1,1.7,1.1,1.7s1.2-1.7,1.3-1.8c0.1-0.1,0.1-0.3,0.6-0.3c0.5,0,0.8-0.1,0.8,0
	c0,0.2-0.3,0.1-0.4,0.5c0,0.3,0,4.4,0,4.6c0,0.5,0.4,0.3,0.4,0.5c0,0.2-0.2,0.1-1,0.1c-0.7,0-1.1,0.1-1.1,0c0-0.2,0.4,0,0.4-0.5
	v-3.1c0,0-1.2,1.7-1.2,1.7c-0.1,0-1.5-2.1-1.5-2.1v3.7c0,0.6,0.6,0.2,0.6,0.5c0,0.1-0.4,0.2-0.8,0.2c-0.4,0.1-0.7,0.2-0.7,0.1
	c-0.1-0.2,0.4-0.1,0.4-0.8c0-0.6,0-4,0-4.2C64.4,332.6,63.9,332.9,63.9,332.7 M62.3,333.3c0.2-0.1,0.7-0.4,0.8-0.3
	c0.1,0.1-0.2,0.2-0.4,1c-0.1,0.3-1,5.4-1.4,5.6c-0.1,0.1-1.8-4-1.9-4.3c-0.3-0.6-0.6-0.2-0.6-0.4c0-0.1,0.4-0.3,0.8-0.5
	c0.2-0.1,0.9-0.5,1-0.4c0.2,0.2-0.4,0.2-0.1,0.8c0.2,0.4,1.1,2.5,1.1,2.5s0.5-2.3,0.7-3.1c0.2-0.8-0.4-0.4-0.5-0.6
	C61.7,333.6,62,333.4,62.3,333.3L62.3,333.3L62.3,333.3z M56,338.7v2.8c0,0,1.4-0.3,1.4-2C57.4,337.9,56,338.7,56,338.7 M55.9,336.2
	v1.9c0,0,1-0.4,1-1.3C57,335.7,55.9,336.2,55.9,336.2 M56,335.7c0.6-0.2,2.2-0.6,2.2,0.8c0,1-0.6,1.2-0.6,1.2s1.2,0.2,1.2,1.2
	c0,1.1-0.5,1.9-1.1,2.2c-0.3,0.2-2.2,1.1-2.4,1.2c-0.2,0.1-0.6,0.3-0.7,0.2c-0.1-0.2,0.3-0.2,0.3-0.9v-4.5c0-1-0.5-0.5-0.5-0.8
	C54.4,336.3,55.4,336,56,335.7 M66,323.1v2.3c0,0,1.1-0.1,1.1-1.3C67.1,322.6,66,323.1,66,323.1 M68.9,328.2c0.3,0,0.5-0.1,0.5-0.1
	s-0.1,0.8-1,0.8c-1.2,0-1.1-2-1.5-2.6c-0.3-0.6-0.9-0.3-0.9-0.3v2c0,0.6,0.4,0.4,0.4,0.6c0,0.1-0.3,0.2-0.3,0.2s-0.9,0.2-1.2,0.3
	c-0.3,0.1-0.5,0.1-0.5,0c0-0.3,0.3-0.1,0.3-0.8v-4.2c0-0.8-0.5-0.5-0.5-0.8c0-0.1,0.3-0.2,0.6-0.3c0.5-0.1,0.8-0.3,1.5-0.5
	c0.8-0.2,2.1,0.2,2.1,1.2c0,1.2-0.7,1.4-1,1.7C68.9,326.2,68.3,328.1,68.9,328.2 M60.1,325.2c0.5-0.2,1.5-0.6,2.5-1.2
	c0.1-0.1,0.6-0.3,0.8,0c0.2,0.4,0.4,0.9,0.2,1c-0.2,0.1-0.3-0.1-0.5-0.2c-0.2-0.1-0.5-0.2-0.7-0.2s-0.6,0.2-0.6,0.2v1.8
	c0,0,0.6,0,0.7-0.3c0.1-0.3,0.2-0.6,0.4-0.7c0.1,0,0.1,0.3,0.1,0.8l0,0.4c0,0.6,0,0.8-0.1,0.8c-0.2,0-0.3-0.4-0.4-0.5
	c-0.1-0.2-0.7,0-0.7,0.1v2.6c0,0,0.5-0.3,0.7-0.4c0.3-0.2,0.8-0.7,1-1.1c0.2-0.3,0.3-0.6,0.4-0.6c0.1,0-0.1,1.1-0.1,1.1
	s0,0.4-0.4,0.6c-0.4,0.2-2.4,1.1-2.5,1.2c-0.3,0.2-0.8,0.5-0.8,0.3c0-0.3,0.3-0.1,0.3-0.9l0-4.3c0,0,0-0.4-0.3-0.4
	C59.9,325.4,59.7,325.3,60.1,325.2 M55.4,327.2c0.3-0.1,1.1-0.5,1.2-0.4c0.1,0.3-0.4,0.2-0.2,0.7c0.2,0.4,1.1,2.7,1.1,2.7l0.8-3.2
	c0.2-0.7-0.4-0.5-0.4-0.6c0-0.1,0.4-0.3,0.7-0.4c0.2-0.1,0.9-0.4,0.9-0.3c0.1,0.2-0.2,0.2-0.4,0.9c-0.2,0.7-1.5,5.8-1.8,6
	c-0.2,0.1-1.9-4.3-2.1-4.6c-0.1-0.3-0.6-0.2-0.7-0.4C54.4,327.4,55.1,327.3,55.4,327.2 M78.2,341.2c0-0.1,0.2-0.1,0.5,0
	c0.3,0.1,0.7,0.2,0.9,0.6l2.1,3.7l0-2.9c0-0.4-0.3-0.4-0.3-0.6c0-0.1,0.3,0,0.5,0.1c0.3,0.1,0.7,0.1,0.7,0.3c0,0.1-0.4-0.1-0.4,0.3
	v5.5c0,0,0,0.2-0.2,0c-0.1-0.2-3-4.8-3-4.8s0,2.9,0,3.2c0,0.3,0.4,0.3,0.4,0.5s-0.4,0.1-0.7,0c-0.2,0-0.6,0-0.6-0.2
	c0-0.2,0.3,0.1,0.3-0.4v-4.7C78.6,341.4,78.2,341.4,78.2,341.2 M80.9,332.7c0-0.2,0.9,0.2,1.6,0.4c0.7,0.2,2,0.4,2,0.9
	c0,0.5,0.1,1,0,1c-0.1,0-0.3-0.7-0.5-0.9c-0.3-0.3-1-0.5-1.2-0.5c-0.2,0-0.1,0-0.1,0.1v1.7c0,0,0.5,0.2,0.7,0.1
	c0.2-0.1,0.3-0.5,0.4-0.5c0.1,0,0.1,0.3,0.1,0.9c0,0.6,0,1.1-0.1,1.1c-0.1-0.1-0.2-0.6-0.5-0.9c-0.3-0.3-0.6-0.3-0.6-0.3v2.8
	c0,0,0.3,0.4,1.1,0.1c0.7-0.2,1.2-0.7,1.3-0.6c0.1,0.1,0.1,0.3-0.3,0.8c-0.3,0.5-0.5,0.9-0.9,0.7c-0.3-0.1-1.1-0.4-1.6-0.7
	c-0.5-0.2-1.5-0.5-1.5-0.7c0-0.2,0.5,0.2,0.5-0.4v-4.8C81.3,333,80.9,332.9,80.9,332.7 M79.7,331.9c0.2,0,0.2,0.9,0.2,1.2
	c0.1,0.6,0.2,1.1,0.1,1.1c-0.3,0-0.6-0.9-1-1.4c-0.4-0.4-1.9-1.2-1.9,2c0,2.8,1.2,2.7,1.9,2.5c0.6-0.2,0.9-0.7,1-0.7
	c0.1,0.1-0.5,1.4-1.9,1.5c-1.3,0.1-2.6-1.2-2.6-3.2c0-2.1,1-3.3,2.3-3.3c1,0,1.3,0.7,1.8,0.7C79.7,332.5,79.4,331.9,79.7,331.9
	 M83.2,324.6c0.1-0.3,0.5,0.1,1.3,0.4c0.8,0.3,1.3,0.5,1.3,0.6c-0.1,0.1-0.6-0.1-0.5,0.3c0.1,0.4,0.9,3.1,0.9,3.1s1-2.3,1-2.4
	c0.1-0.3-0.3-0.3-0.2-0.5c0-0.1,0.3,0.1,0.6,0.2c0.2,0.1,0.6,0.3,0.6,0.4c-0.1,0.2-0.4-0.2-0.5,0.1c-0.1,0.3-2.1,4.7-2.1,4.7l-2-6.3
	C83.4,324.8,83.1,324.8,83.2,324.6 M78.7,322.9c0-0.2,0.3,0,0.3,0l1.7,0.6c0,0,0.3,0.1,0.3,0.2c0,0.1-0.6-0.2-0.6,0.4v4.9
	c0,0,0.1,0.3,0.7,0.1c0.6-0.2,1.4-0.8,1.4-0.8s0.4-0.2,0.3,0.1c-0.1,0.3-0.5,1.2-0.5,1.2s-0.1,0.4-0.6,0.3c-0.5-0.1-1.6-0.4-1.9-0.5
	c-0.3-0.1-1.2-0.4-1.2-0.4s-0.2,0-0.2-0.2c0-0.1,0.6,0,0.6-0.4v-4.8C79,323.1,78.7,323.1,78.7,322.9 M85.4,340.3
	c0-0.3,0.5,0.1,0.5-0.4v-4.8c0-0.6-0.3-0.6-0.3-0.8s0.5,0.1,0.6,0.2c0.1,0,1.5,0.8,1.6,0.8c0.1,0.1,1.6,0.7,1.6,2.3
	c0,1.1-0.9,0.9-0.9,0.9s0.9,0.5,1,1.3c0.1,0.8,0.2,1.5,0.2,1.6c0,0.1,0.2,0.6,0.7,0.1c0,0,0.1,1-1,0.6c-0.7-0.2-0.9-0.9-1-1.3
	c-0.1-0.5-0.3-2.6-1.3-2.6v2.2c0,0.6,0.3,0.4,0.3,0.8c0,0.2-0.5-0.1-1-0.3C85.8,340.6,85.4,340.5,85.4,340.3 M87.1,335.5v2.2
	c0.1,0.1,1.2,0.8,1.2-0.6C88.4,335.7,87.1,335.5,87.1,335.5 M84.7,343.8c0.1-0.4-0.2-0.4-0.2-0.6c0-0.1,0.5,0.1,0.8,0.3
	c0.3,0.1,0.7,0.2,0.8,0.6c0.1,0.4,1.5,5.2,1.7,5.6c0.2,0.5,0.5,0.4,0.4,0.6c0,0.1-0.4-0.1-1.3-0.4c-0.7-0.3-1-0.4-1-0.5
	c0-0.2,0.7,0.1,0.5-0.3c-0.1-0.3-0.3-1.1-0.3-1.1l-1.9-0.6l-0.3,0.9c-0.1,0.5,0.3,0.4,0.2,0.6c0,0.1-0.3,0-0.7-0.2
	c-0.3-0.1-0.5-0.2-0.5-0.3c0-0.2,0.3,0.1,0.4-0.3C83.5,347.7,84.6,344.1,84.7,343.8 M85,344.4l-0.7,2.1l1.5,0.5L85,344.4z
	 M123.1,284.8V348c0.7,37.7-30.2,51.1-50.5,51.1c-20.4,0-51.2-13.4-50.5-51.1v-63.2h18.8c-0.1-1.2,0.2-2,0.2-2
	c25.7-5.2,38.2-5.4,63.9,0c0.5,0.6,0.7,1.3,0.6,2H123.1L123.1,284.8z M31.4,376.3l19.7-21v-6.1l-2.2-0.1c0,0-1.5-0.4-1.2-1.9
	c0.3-1.4,1.8-1.1,1.8-1.1s-0.3-1.3,0.9-1.8c0.2-0.1,0.4-0.1,0.6-0.2V340l-24.6,26.2C27.8,370,29.4,373.4,31.4,376.3 M56,322.7
	c0.3-0.1,0.5-0.2,0.8-0.4c0.9-0.5,2.7-1.4,4.5-2.2c1.8-0.8,4-1.5,5.7-1.5c1.9,0,3.7,0.6,5.2,1.8l0.1,0.1c0.3-0.4,0.6-0.7,1-0.9
	c0.8-0.5,2.1-1,4.1-1c2,0,4.3,0.8,6.2,1.7l0.4,0.2l31.7-33.8h-14.4l-27.9,29.7v-14.3l14.5-15.4h-64V348c0,2.3,0,4.5,0.2,6.6
	l13.8-14.7h13.3v-11.7c-0.2,0.3-0.6,0.3-0.6,0.3s0.3-1-0.6-1.2c-0.1,0-0.2,0-0.2,0c-0.5,0-0.8,0.3-1.1,0.5c-0.5,0.4-1.9,2.1-2.2,2.4
	c-0.3-0.3-1.7-2-2.2-2.4c-0.3-0.2-0.6-0.5-1.1-0.5c-0.1,0-0.2,0-0.2,0c-0.9,0.1-0.6,1.2-0.6,1.2s-0.8,0.1-0.8-1.1
	c0-0.9,0.7-1.4,1.3-1.6c1-0.2,1.9-0.3,2.1-1.9c0-0.3,0-0.4,0-0.4s-0.3,0.5-1.2,0.9c-1,0.5-3.6,0.5-3.6,2c0,0.6,0.6,0.5,0.6,0.5
	s0,0.3-0.5,0.3c-0.1,0-0.2,0-0.4,0c-0.6-0.1-0.8-0.7-0.8-1.6c0-0.5-0.3-1.2-1-1.1c-0.1,0-0.3,0.1-0.4,0.1c-0.5,0.3-0.3,0.8-0.3,0.8
	s-0.6-0.3-0.5-1c0.1-0.6,0.5-0.8,1-1.1c0.1,0,0.1,0,0.2,0c0.7-0.1,1.3,0.1,1.3,0.1s-0.2-0.5-0.1-1.1c0.1-0.5,0.3-0.9,1-1
	c1-0.2,1.2,0.5,1.1,0.9c-0.1,0-0.2-0.2-0.5-0.2c0,0-0.1,0-0.1,0c-0.1,0.1-0.3,0.2-0.3,0.3c-0.2,0.4,0.2,0.9,0.2,1
	c0.2,0.3,0.8,0.5,1.6,0.3c0.8-0.2,1.4-0.6,1.8-1.3c0.2-0.3,0.2-0.5,0.2-0.7l0.5-5.4c0,0,0.2-1.4-0.8-1.6c-0.1,0-0.2,0-0.3,0
	c-0.8,0.1-1.6,1.2-1.4,2.5c0.2,1-0.3,1.8-0.8,1.9c-0.6,0.2-1,0-1.3-0.4c1.1-0.1,1.1-1,0.7-1.3c-0.2-0.1-0.4-0.2-0.6-0.1
	c-1,0.2-2.7,1.6-3,2.5c-0.2,0.8,0.3,0.6,0.6,1.2c0.2,0.5-0.2,0.9-0.2,0.9c0,0.2,0,0.3-0.1,0.4c-0.1,0.5-0.4,0.6-0.6,0.6
	c-0.1,0-0.3,0-0.4-0.1c0.3-0.1,0.4-0.4,0.4-0.6c0-0.1,0-0.3,0-0.3s-0.3,0-0.6-0.4c-0.3-0.5,0.1-0.6-0.3-1.2
	c-0.4-0.5-1.3-1.1-2.1-1.2c0,0-0.1,0-0.1,0c-0.1,0-0.3,0.1-0.5,0.1c-0.1,0-0.1,0-0.2,0c-0.6,0-0.4-0.4-0.9-0.3
	c-0.3,0.1-0.4,0.3-0.3,0.6c0,0.1,0,0.1,0,0.1c-0.2-0.2-0.4-0.4-0.4-0.7c0-0.8,0.5-1.3,1-1.4c0.3,0,0.7,0.1,0.9,0.4
	c0.3-1.3-0.7-0.9-1.2-1.5c-0.3-0.4-0.2-0.6-0.2-0.8c0.1-0.2-0.3-0.3-0.7-0.2c-0.1,0-0.2,0-0.2,0.1c-0.1-0.1,0.1-0.7,0.7-0.8
	c0.3,0,0.6,0,0.9,0.1c0.3-0.1,0.6,0,0.8,0.3c0.1,0.3,0,0.6,0.1,0.9c0.1,0.9,0.6,0.8,0.7,0.8c-0.5-1.2,0.1-1.6,0.2-1.8
	c0.1-0.2,0-0.5-0.3-0.6c-0.1,0-0.2-0.1-0.1-0.1c0,0,1.2-0.1,1.4,0.7c0,0,0.5,0.3,0.5,0.9c0,0.8-0.4,0.9-0.6,1c0.1,0.8,0.6,1,1.1,0.9
	c0.5-0.1,0.9-0.3,0.9-0.3c0.8-0.3,2.4-1.3,2-2.1c-0.2-0.4-0.5-0.5-0.9-0.5c-0.2,0-0.4,0.1-0.5,0.2c-0.5,0.4-0.2,1-0.2,1
	c-0.7,0.2-1-1-0.6-1.6c0.3-0.3,0.7-0.5,1.1-0.6c0.5-0.1,1-0.1,1.4-0.2c0.6-0.1,1-0.5,1.4-1.2c0.3-0.6,0.3-1.2,0.1-1.8
	c-0.3-0.6-0.8-1.4-1.6-1.5c-0.2,1.3-0.9,2.4-1.8,3c-0.2,0.1-0.5,0.2-0.7,0.3c-0.2,0-0.3,0-0.2,0c1.2-1.4,0.9-2.8,0.8-3
	c-0.1,0.2-1,1.8-2.7,2.6c-0.2,0.1-0.3,0.1-0.5,0.1c-0.9,0.1-1.8-0.3-1.4-0.3c0.6-0.1,2.9-1.4,2.2-4.3c-0.1,0.2-1.1,2-2.4,2.9
	c-0.5,0.4-1.1,0.6-1.6,0.6c-1,0.2-1.8-0.1-1.6-0.2c0,0,2.8-1.3,2.8-2.6c-0.1,0.1-0.8,0.6-1.7,0.8c-0.1,0-0.2,0-0.4,0
	c-2.4,0-2.4-1.7-2.4-1.7c0.2,0,2.4,0.2,4.2-3.7c0,0-1.2,0.4-2.5,0.6c-0.8,0.1-1.1-0.4-1-0.4c0.2,0.1,0.3,0.1,0.5,0
	c0.4-0.1,1.1-0.4,1.9-1c-0.2-0.1-3.1-1.4-2-3.4c0,0,0.8,0.7,1.8,0.8c0.7,0.1,2-0.1,2.3-0.8c0,0-1.6-0.1-3.1-1.1
	c-0.9-0.6-1.3-1.9-0.9-1.5c0.3,0.4,0.7,0.5,1.2,0.6c0.4,0.1,0.7,0,0.7,0s-2.2-2.1-0.8-3.8c0,0,0.8,2.1,2.6,2.1c0,0-0.9-0.9-1.1-1.9
	c-0.1-0.7-0.1-1.7,0.1-1.4c0.1,0.2,0.3,0.5,0.4,0.8c0.2,0.4,0.7,1,1.1,1.3c0,0-0.3-1.1,0.1-2.1c0.1-0.2,0.6-1,0.6-0.8
	c0,0,0,0.7,0,0.9c0.1,0.7,0.4,1.6,1.7,3c1.7,1.7,3.6,1.7,3.6,2.8c-0.1,1.3-1.7,1.1-2.7,1c-0.4,0-0.3,0.6,0,1
	c0.9,1.2,4.6,1.4,5.7-0.4c0.4-0.7,0.5-1.5,0.2-2.2c-0.4-1-1.1-1-2.7-1.3c-1.1-0.2-0.8-0.7-0.6-0.7c0,0,0.3,0.2,0.6,0.2
	c0.8,0,0.3-1,0.2-1c-0.2,0-1.1,0.4-1.8,0.4c-0.9,0.1-2.1-0.3-2.1-0.9c0-0.8,1-1,0.9-0.8c0,0.1-0.6,1.1,1.1,1.1
	c0.5,0,1.7-0.1,1.6-0.1c0-0.3-0.5-0.7-0.9-0.7c-0.3,0-0.6,0.1-1.1,0c-0.2-0.5,0.3-0.9,0.7-1.1c0.4-0.2,0.6-0.1,0.8-0.1
	c0.2-0.1,0.3-0.7,1.5-0.7c0.6,0,1.5,0.4,1.9,0.4c0.4,0,1.1-0.3,1.2-0.1c0.1,0.1-0.3,0.5-0.2,0.9c0,0.8,1.4,4.2,3,4.5
	c1.5-0.3,3-3.7,3-4.5c0.1-0.4-0.3-0.8-0.2-0.9c0.1-0.1,0.8,0.1,1.2,0.1c0.4,0,1.3-0.4,1.9-0.4c1.2,0,1.3,0.7,1.5,0.7
	c0.2,0.1,0.4,0,0.7,0.1c0.4,0.2,0.9,0.6,0.7,1.1c-0.5,0.1-0.8,0-1.1,0c-0.4,0-0.9,0.4-0.9,0.7c0,0.1,1.1,0.1,1.6,0.1
	c1.7,0.1,1.2-1,1.1-1.1c0-0.2,0.9,0,0.9,0.8c0,0.7-1.1,1-2.1,0.9c-0.7-0.1-1.6-0.4-1.8-0.4c-0.1,0-0.6,1,0.2,1
	c0.3,0,0.6-0.2,0.6-0.2c0.2,0,0.4,0.5-0.6,0.7c-1.5,0.3-2.3,0.4-2.7,1.3c-0.3,0.7-0.2,1.5,0.2,2.2c1.2,1.9,4.9,1.6,5.7,0.4
	c0.3-0.4,0.4-1,0-1c-1,0.1-2.6,0.3-2.7-1c0-1.1,1.9-1.1,3.6-2.8c1.3-1.4,1.6-2.3,1.7-3c0-0.2,0-0.9,0-0.9c0-0.2,0.6,0.6,0.6,0.8
	c0.4,1,0.1,2.1,0.1,2.1c0.4-0.3,0.9-0.9,1.1-1.3c0.1-0.2,0.3-0.6,0.4-0.8c0.1-0.3,0.2,0.7,0.1,1.4c-0.2,1.1-1.1,1.9-1.1,1.9
	c1.9,0,2.6-2.1,2.6-2.1c1.4,1.6-0.8,3.8-0.8,3.8s0.3,0.1,0.7,0c0.5-0.1,0.9-0.3,1.2-0.7c0.3-0.4,0,1-0.9,1.5c-1.5,1-3.1,1.1-3.1,1.1
	c0.3,0.7,1.6,0.9,2.3,0.8c0.7-0.1,1.3-0.4,1.8-0.8c1.1,2-1.8,3.3-2,3.4c0.8,0.6,1.4,0.9,1.9,1c0.2,0,0.4,0,0.5,0
	c0.1,0-0.2,0.5-1.1,0.4c-1.3-0.1-2.5-0.6-2.5-0.6c1.8,3.8,4,3.7,4.2,3.7c0,0,0,1.7-2.4,1.7c-0.1,0-0.2,0-0.4,0
	c-0.6-0.1-1.2-0.4-1.7-0.8c0,1.2,2.8,2.6,2.8,2.6c0.1,0.1-0.6,0.4-1.6,0.2c-0.6-0.1-1.1-0.3-1.6-0.6c-1.3-0.9-2.3-2.7-2.4-2.9
	c-0.7,2.9,1.7,4.3,2.2,4.3c0.4,0-0.5,0.5-1.4,0.3c-0.2,0-0.3-0.1-0.5-0.1c-1.6-0.7-2.6-2.4-2.6-2.6c0,0.1-0.3,1.6,0.8,3
	c0,0.1-0.1,0.1-0.2,0c-0.3,0-0.5-0.1-0.7-0.3c-1-0.7-1.7-1.8-1.8-3c-0.8,0.1-1.4,0.9-1.6,1.5c-0.3,0.6-0.3,1.2,0,1.8
	c0.4,0.7,0.9,1.1,1.4,1.2c0.5,0.1,1,0.1,1.4,0.2c0.4,0.1,0.8,0.2,1.1,0.6c0.4,0.5,0.1,1.8-0.6,1.6c0,0,0.2-0.6-0.2-1
	c-0.2-0.1-0.3-0.2-0.5-0.2c-0.4-0.1-0.7,0.1-0.9,0.5c-0.4,0.8,1.2,1.8,2,2.1c0,0,0.4,0.3,0.9,0.3c0.5,0.1,1-0.1,1.1-0.9
	c-0.2-0.2-0.6-0.2-0.6-1c0-0.6,0.5-0.9,0.5-0.9c0.2-0.8,1.4-0.7,1.4-0.7c0.1,0,0,0.1-0.1,0.1c-0.3,0.1-0.4,0.4-0.3,0.6
	c0.1,0.2,0.6,0.6,0.2,1.8c0.1,0,0.6,0,0.7-0.8c0-0.3-0.1-0.6,0.1-0.9c0.1-0.2,0.4-0.4,0.8-0.3c0.3-0.1,0.6-0.2,0.9-0.1
	c0.6,0.1,0.8,0.7,0.8,0.7s0,0.1-0.1,0.1c-0.1,0-0.1,0-0.2-0.1c-0.3-0.1-0.7,0-0.7,0.2c0,0.2,0.2,0.4-0.2,0.8
	c-0.5,0.6-1.5,0.2-1.2,1.5c0-0.1,0.3-0.4,0.9-0.4c0.5,0,1,0.6,1,1.4c0,0.3-0.2,0.6-0.4,0.7c0,0,0,0,0-0.1c0.1-0.4-0.1-0.6-0.3-0.6
	c-0.5-0.1-0.3,0.3-0.9,0.3c-0.1,0-0.1,0-0.2,0c-0.2,0-0.4-0.1-0.5-0.1c0,0-0.1,0-0.1,0c-0.8,0.1-1.7,0.7-2.1,1.2
	c-0.4,0.5,0,0.7-0.3,1.2c-0.3,0.4-0.6,0.4-0.6,0.4s0,0.1,0,0.3C56,322.5,56,322.6,56,322.7 M54,323.4c0.5-0.1,1-0.3,1.6-0.6
	c-0.1-0.1-0.1-0.2-0.2-0.4c0-0.1-0.1-0.3-0.1-0.5c0,0-0.4-0.4-0.2-0.9c0.2-0.6,0.8-0.5,0.6-1.2c-0.3-0.9-1.9-2.3-3-2.5
	c-0.3,0-0.5,0-0.6,0.1c-0.4,0.3-0.4,1.2,0.7,1.3c-0.2,0.5-0.6,0.6-1.3,0.4c-0.5-0.1-1-0.9-0.8-1.9c0.3-1.3-0.6-2.4-1.4-2.5
	c-0.1,0-0.2,0-0.3,0c-0.9,0.2-0.8,1.6-0.8,1.6l0.5,5.4c0,0.2,0.1,0.4,0.2,0.7c0.4,0.7,1.1,1.1,1.8,1.3c0.8,0.1,1.4-0.1,1.6-0.3
	c0.1-0.1,0.4-0.6,0.2-1c-0.1-0.1-0.2-0.3-0.3-0.3c0,0-0.1,0-0.1,0c-0.3,0-0.5,0.2-0.5,0.2c-0.1-0.4,0.1-1,1.1-0.9
	c0.7,0.1,0.9,0.6,1,1c0.1,0.5-0.1,1.1-0.1,1.1S53.7,323.4,54,323.4 M51.2,325.3c0-0.1,0-0.3,0-0.4c-0.7-0.2-1.5-0.3-2-0.6
	c-0.8-0.4-1.2-0.9-1.2-0.9s-0.1,0.1,0,0.4c0.2,1.6,1.1,1.7,2.1,1.9c0.4,0.1,0.9,0.4,1.1,0.8V325.3L51.2,325.3z M85.4,355.9
	c-0.1,0.3-0.1,0.9,0.1,1.2c0.8,1.1,3.9,1.4,5.4,0C89,356.8,87.2,356.3,85.4,355.9 M94.1,353c0.5,0.6,1,1.1,1.6,1.2
	c1.5-0.3,3-3.7,3-4.5c0.1-0.4-0.3-0.8-0.2-0.9c0.1-0.1,0.8,0.1,1.2,0.1c0.4,0,1.3-0.4,1.9-0.4c1.2,0,1.3,0.6,1.5,0.7
	c0.2,0.1,0.4,0,0.8,0.1c0.4,0.2,0.9,0.6,0.7,1.1c-0.5,0.1-0.8,0-1.1,0c-0.4,0-0.9,0.4-0.9,0.7c0,0,1.1,0.1,1.7,0.1
	c1.7,0.1,1.1-1,1.1-1.1c0-0.2,0.9,0,0.9,0.8c0,0.6-1.1,1-2.1,0.9c-0.7-0.1-1.6-0.4-1.8-0.4c-0.1,0-0.6,1,0.2,1
	c0.3,0,0.6-0.2,0.6-0.2c0.2,0,0.5,0.5-0.6,0.7c-1.5,0.3-2.3,0.4-2.7,1.3c-0.3,0.7-0.2,1.5,0.2,2.2c1.2,1.9,4.9,1.6,5.7,0.4
	c0.3-0.4,0.3-1,0-1c-1,0.1-2.6,0.3-2.7-1c0-1.1,1.9-1.1,3.6-2.8c1.3-1.4,1.6-2.3,1.7-3c0-0.2,0-0.9,0-0.9c0-0.2,0.6,0.6,0.6,0.8
	c0.4,1,0.1,2.1,0.1,2.1c0.4-0.3,0.9-0.9,1.1-1.3c0.1-0.2,0.3-0.6,0.4-0.8c0.1-0.3,0.2,0.7,0.1,1.4c-0.2,1.1-1.1,1.9-1.1,1.9
	c1.9,0,2.6-2.1,2.6-2.1c1.4,1.7-0.8,3.8-0.8,3.8s0.3,0.1,0.7,0c0.5-0.1,0.9-0.3,1.2-0.7c0.3-0.4,0,0.9-0.9,1.5
	c-1.5,1-3.1,1.1-3.1,1.1c0.3,0.7,1.6,0.9,2.3,0.8c1-0.1,1.8-0.8,1.8-0.8c1.1,2-1.8,3.3-2,3.4c0.8,0.6,1.4,0.9,1.9,1
	c0.2,0,0.4,0,0.5,0c0.1,0-0.2,0.5-1,0.4c-1.4-0.1-2.5-0.6-2.5-0.6c1.8,3.8,4,3.7,4.2,3.7c0,0,0,1.7-2.4,1.7c-0.1,0-0.2,0-0.4,0
	c-0.9-0.1-1.6-0.7-1.7-0.8c0,1.2,2.8,2.6,2.8,2.6c0.1,0.1-0.6,0.4-1.6,0.3c-0.6-0.1-1.1-0.3-1.6-0.6c-1.3-0.9-2.3-2.7-2.4-2.9
	c-0.7,2.9,1.6,4.3,2.2,4.3c0.4,0-0.5,0.5-1.4,0.3c-0.2,0-0.3-0.1-0.5-0.1c-1.6-0.7-2.6-2.4-2.6-2.6c0,0.1-0.3,1.6,0.8,3
	c0,0-0.1,0.1-0.2,0c-0.3,0-0.5-0.1-0.7-0.3c-1-0.7-1.7-1.8-1.8-3c-0.8,0.1-1.4,0.9-1.6,1.5c-0.3,0.6-0.3,1.2,0.1,1.8
	c0.4,0.7,0.9,1.1,1.4,1.2c0.5,0.1,1,0.1,1.4,0.2c0.4,0,0.8,0.3,1.1,0.6c0.4,0.5,0.1,1.8-0.6,1.6c0,0,0.2-0.6-0.2-1
	c-0.2-0.1-0.3-0.2-0.5-0.2c-0.4-0.1-0.7,0.1-0.9,0.5c-0.4,0.8,1.2,1.8,2,2.1c0,0,0.4,0.3,0.9,0.3c0.5,0.1,1-0.1,1.1-0.9
	c-0.2-0.2-0.6-0.2-0.6-1c0-0.6,0.5-0.9,0.5-0.9c0.2-0.8,1.4-0.7,1.4-0.7c0.1,0,0,0.1-0.1,0.1c-0.3,0.1-0.4,0.4-0.3,0.6
	c0.1,0.2,0.7,0.6,0.2,1.8c0.1,0,0.6,0,0.7-0.8c0-0.3-0.1-0.6,0.1-0.9c0.2-0.3,0.5-0.4,0.8-0.3c0.3-0.1,0.6-0.2,0.9-0.1
	c0.6,0.1,0.8,0.7,0.8,0.7s0,0.1-0.1,0.1c-0.1,0-0.2-0.1-0.2-0.1c-0.3,0-0.7,0-0.6,0.2c0,0.2,0.2,0.4-0.2,0.8
	c-0.5,0.6-1.5,0.2-1.2,1.5c0-0.1,0.3-0.4,0.9-0.4c0.5,0,1,0.6,1,1.4c0,0.3-0.2,0.6-0.4,0.7c0,0,0,0,0-0.1c0.1-0.4-0.1-0.6-0.3-0.7
	c-0.5,0-0.3,0.3-0.9,0.3c-0.1,0-0.1,0-0.2,0c-0.2,0-0.4-0.1-0.5-0.1c0,0-0.1,0-0.1,0c-0.8,0.1-1.7,0.7-2.1,1.2
	c-0.4,0.5,0,0.7-0.3,1.2c-0.3,0.4-0.6,0.4-0.6,0.4s0,0.1,0,0.3c0,0.2,0.1,0.5,0.4,0.5c0,0,0.1,0,0,0.1c-0.1,0-0.3,0.1-0.4,0
	c-0.2,0-0.5-0.2-0.6-0.6c0-0.1-0.1-0.3-0.1-0.5c0,0-0.4-0.4-0.2-0.9c0.2-0.7,0.8-0.5,0.6-1.2c-0.3-0.9-1.9-2.3-3-2.5
	c-0.3,0-0.5,0-0.6,0.1c-0.4,0.3-0.4,1.2,0.7,1.3c-0.2,0.5-0.6,0.6-1.3,0.4c-0.5-0.1-1-0.9-0.8-1.9c0.3-1.3-0.6-2.4-1.4-2.5
	c-0.1,0-0.2,0-0.3,0c-1,0.2-0.8,1.6-0.8,1.6l0.5,5.4c0,0.2,0.1,0.4,0.2,0.7c0.3,0.5,0.9,1.1,1.8,1.3c0.8,0.1,1.4,0,1.6-0.3
	c0.1-0.1,0.4-0.6,0.2-1c-0.1-0.1-0.2-0.3-0.3-0.3c-0.1,0-0.1,0-0.1,0c-0.3,0-0.5,0.2-0.5,0.2c-0.1-0.4,0.1-1,1.1-0.9
	c0.7,0.1,0.9,0.6,1,1c0.1,0.5-0.1,1-0.1,1s0.6-0.2,1.3-0.1c0.1,0,0.1,0,0.2,0c0.5,0.2,0.9,0.5,1,1.1c0.1,0.7-0.5,1-0.5,1
	s0.2-0.5-0.3-0.8c-0.1-0.1-0.2-0.1-0.4-0.1c-0.7-0.1-1,0.6-1,1.1c0,0.8-0.2,1.5-0.8,1.6c-0.1,0-0.2,0-0.4,0
	c-0.5-0.1-0.5-0.3-0.5-0.3s0.7,0.1,0.6-0.6c0.1-1.5-2.6-1.5-3.6-2c-0.8-0.4-1.2-0.9-1.2-0.9s-0.1,0.1,0,0.4c0.2,1.6,1.1,1.7,2.1,1.9
	c0.6,0.2,1.4,0.7,1.4,1.6c0,1.3-0.8,1.1-0.8,1.1s0.3-1-0.6-1.2c-0.1,0-0.2,0-0.2,0c-0.5,0-0.8,0.3-1.1,0.5c-0.5,0.4-1.9,2.1-2.2,2.4
	c-0.3-0.3-1.7-2-2.2-2.4c-0.3-0.2-0.6-0.5-1.1-0.5c-0.1,0-0.2,0-0.2,0c-0.9,0.1-0.6,1.2-0.6,1.2s-0.8,0.1-0.8-1.1
	c0-0.9,0.7-1.4,1.3-1.6c1-0.2,1.9-0.3,2.1-1.9c0-0.3,0-0.4,0-0.4s-0.3,0.5-1.2,0.9c-1,0.5-3.6,0.5-3.6,2c0,0.6,0.6,0.5,0.6,0.5
	s0,0.3-0.5,0.3c-0.1,0-0.2,0-0.4,0c-0.6-0.1-0.8-0.7-0.8-1.6c0-0.5-0.3-1.2-1-1.1c-0.1,0-0.3,0.1-0.4,0.1c-0.5,0.3-0.3,0.8-0.3,0.8
	s-0.6-0.3-0.5-1c0.1-0.6,0.5-0.8,1-1.1c0.1,0,0.1,0,0.2,0c0.7-0.1,1.3,0.1,1.3,0.1s-0.2-0.5-0.1-1c0.1-0.5,0.3-0.9,1-1
	c1-0.2,1.2,0.5,1.1,0.9c-0.1,0-0.2-0.2-0.5-0.2c-0.2,0-0.4,0.2-0.4,0.4c-0.2,0.4,0.2,0.9,0.2,1c0.2,0.3,0.8,0.5,1.6,0.3
	c0.8-0.2,1.4-0.6,1.8-1.3c0.2-0.3,0.2-0.5,0.2-0.7l0.5-5.4c0,0,0.2-1.4-0.8-1.6c-0.1,0-0.2,0-0.3,0c-0.8,0.1-1.6,1.2-1.4,2.5
	c0.2,1-0.3,1.8-0.8,1.9c-0.6,0.1-1,0-1.3-0.5c1.1-0.1,1.1-1,0.7-1.3c-0.2-0.1-0.4-0.2-0.6-0.1c-1.1,0.2-2.7,1.6-3,2.5
	c-0.2,0.8,0.3,0.6,0.6,1.2c0.2,0.5-0.2,0.9-0.2,0.9c0,0.2,0,0.3-0.1,0.5c-0.1,0.5-0.4,0.6-0.6,0.6c-0.1,0-0.3,0-0.4-0.1
	c0.3-0.1,0.4-0.4,0.4-0.6c0-0.1,0-0.3,0-0.3s-0.3,0-0.6-0.4c-0.3-0.5,0.1-0.6-0.3-1.2c-0.4-0.5-1.3-1.1-2.1-1.2c0,0-0.1,0-0.1,0
	c-0.2,0-0.3,0.1-0.5,0.1c-0.1,0-0.1,0-0.2,0c-0.6,0-0.4-0.4-0.9-0.3c-0.3,0.1-0.4,0.3-0.3,0.7c0,0,0,0.1,0,0.1
	c-0.2-0.2-0.4-0.4-0.4-0.7c0-0.8,0.5-1.3,1-1.4c0.6-0.1,0.8,0.3,0.9,0.4c0.3-1.3-0.7-0.9-1.2-1.5c-0.3-0.4-0.2-0.6-0.2-0.8
	c0.1-0.2-0.3-0.3-0.6-0.2c-0.1,0-0.2,0-0.2,0.1c-0.1-0.1,0.1-0.7,0.7-0.8c0.3,0,0.6,0,0.9,0.1c0.3-0.1,0.7,0.1,0.8,0.3
	c0.1,0.3,0,0.6,0.1,0.9c0.1,0.9,0.6,0.8,0.7,0.8c-0.5-1.2,0.1-1.6,0.2-1.8c0.1-0.2,0-0.5-0.3-0.6c-0.1,0-0.2-0.1-0.1-0.1
	c0,0,1.2-0.1,1.4,0.7c0,0,0.5,0.3,0.5,0.9c0,0.8-0.4,0.9-0.6,1c0.1,0.8,0.6,1,1.1,0.9c0.4-0.1,0.9-0.3,0.9-0.3
	c0.8-0.3,2.4-1.3,2-2.1c-0.2-0.4-0.5-0.5-0.9-0.5c-0.2,0-0.4,0.1-0.5,0.2c-0.5,0.4-0.2,1-0.2,1c-0.7,0.2-1-1-0.6-1.6
	c0.3-0.3,0.7-0.5,1.1-0.6c0.5-0.1,1-0.1,1.4-0.2c0.6-0.1,1-0.5,1.4-1.2c0.3-0.6,0.3-1.2,0.1-1.8c-0.3-0.6-0.8-1.4-1.6-1.5
	c-0.2,1.3-0.9,2.4-1.8,3c-0.2,0.1-0.5,0.2-0.7,0.3c-0.2,0-0.3,0-0.2,0c1.2-1.4,0.9-2.8,0.8-3c-0.1,0.2-1,1.8-2.6,2.6
	c-0.2,0.1-0.3,0.1-0.5,0.1c-0.9,0.1-1.8-0.3-1.4-0.3c0.6-0.1,2.9-1.4,2.2-4.3c-0.1,0.2-1.1,2-2.4,2.9c-0.5,0.3-1,0.6-1.6,0.6
	c-1,0.2-1.8-0.1-1.6-0.3c0,0,2.8-1.3,2.8-2.6c-0.1,0.1-0.8,0.6-1.7,0.8c-0.1,0-0.2,0-0.4,0c-2.4,0-2.4-1.7-2.4-1.7
	c0.2,0,2.4,0.2,4.2-3.7c0,0-1.2,0.4-2.5,0.6c-0.8,0.1-1.1-0.4-1.1-0.4c0.2,0.1,0.3,0.1,0.5,0c0.4-0.1,1.1-0.4,1.9-1
	c-0.2-0.1-3.1-1.4-2-3.4c0,0,0.8,0.7,1.8,0.8c0.7,0.1,2-0.1,2.3-0.8c0,0-1.6-0.1-3.1-1.1l-0.1-0.1c-0.7,0-1.4,0-2.2,0.1
	c-0.5,1.9-2.1,3.4-4,3.4c-1.9,0-3.5-1.4-4-3.3c-1.2-0.2-2.4-0.3-3.6-0.2l-27.1,28.9c2.6,2.5,5.5,4.5,8.5,6.3l25.4-27v14.3l-15.9,17
	c5.8,2,11.6,2.8,16.8,2.8c19.8,0,49.4-13,48.7-49.2v-23.3l-12.7,13.5H95.2l26.1-27.8V295l-27.4,29.2c0.1,0.1,0.2,0.2,0.2,0.4
	L94.1,353L94.1,353z M91.1,361.7h9v-3.6h-9.1L91.1,361.7L91.1,361.7z M95.6,368.8c4,0,4.4-3.8,4.4-3.8h-8.8
	C91.2,364.9,91.6,368.8,95.6,368.8 M41.9,305.7h9v-3.6h-9.1L41.9,305.7L41.9,305.7z M46.4,312.8c4,0,4.4-3.8,4.4-3.8h-8.9
	C41.9,309,42.3,312.8,46.4,312.8 M70.7,354.4c0,1.1,0.9,1.9,1.9,1.9c1.1,0,1.9-0.9,1.9-1.9c0-1.1-0.9-1.9-1.9-1.9c0,0,0,0,0,0
	C71.5,352.5,70.7,353.4,70.7,354.4 M52.4,325.2V355c0,0,0.3,0.4,2.3-0.1c2.3-0.6,5.1-3.5,9.1-4.4c3-0.6,7,0.3,7.9,0.9v-29.8
	c0,0-1.8-1.8-4.8-1.8c-2.9,0-7.8,2.6-9.6,3.5c-1.6,0.8-3.3,1.4-4.6,1.6C52.4,324.9,52.4,325.2,52.4,325.2 M78.4,350.3
	c5.2,0,7.8,3.2,9.6,3.9c4.1,1.6,4.8,0.8,4.8,0.8v-29.9c0-0.3-0.4-0.3-0.4-0.3s-4-0.6-5.3-1.4c-1.3-0.8-6.1-3.7-9.7-3.7
	c-3.6,0-4.2,1.5-4.2,1.5v30.2C73.2,351.4,74.8,350.3,78.4,350.3"/>
</svg>
